<mxfile host="Electron" agent="Mozilla/5.0 (X11; Linux x86_64) AppleWebKit/537.36 (KHTML, like Gecko) draw.io/24.7.17 Chrome/128.0.6613.36 Electron/32.0.1 Safari/537.36" version="24.7.17">
  <diagram name="Page-1" id="jZ0LxyZV7y2Rt8qekWQ8">
    <mxGraphModel dx="1195" dy="703" grid="1" gridSize="10" guides="1" tooltips="1" connect="1" arrows="1" fold="1" page="1" pageScale="1" pageWidth="1169" pageHeight="827" math="1" shadow="0">
      <root>
        <mxCell id="0" />
        <mxCell id="1" parent="0" />
        <mxCell id="7bcrf3msrehZK2Avg0mC-96" value="$$\text{Quantum State Register}$$" style="text;html=1;align=center;verticalAlign=middle;whiteSpace=wrap;rounded=0;" vertex="1" parent="1">
          <mxGeometry x="445" y="239" width="160" height="20" as="geometry" />
        </mxCell>
        <mxCell id="7bcrf3msrehZK2Avg0mC-137" style="edgeStyle=orthogonalEdgeStyle;rounded=0;orthogonalLoop=1;jettySize=auto;html=1;exitX=1;exitY=0.5;exitDx=0;exitDy=0;entryX=0;entryY=0;entryDx=0;entryDy=0;endArrow=none;endFill=0;" edge="1" parent="1" source="7bcrf3msrehZK2Avg0mC-104" target="7bcrf3msrehZK2Avg0mC-114">
          <mxGeometry relative="1" as="geometry">
            <Array as="points">
              <mxPoint x="425" y="429" />
              <mxPoint x="425" y="429" />
            </Array>
          </mxGeometry>
        </mxCell>
        <mxCell id="7bcrf3msrehZK2Avg0mC-104" value="$$\texttt{CNOT}$$" style="rounded=0;whiteSpace=wrap;html=1;" vertex="1" parent="1">
          <mxGeometry x="285" y="389" width="80" height="80" as="geometry" />
        </mxCell>
        <mxCell id="7bcrf3msrehZK2Avg0mC-105" value="" style="rounded=0;whiteSpace=wrap;html=1;" vertex="1" parent="1">
          <mxGeometry x="445" y="269" width="160" height="40" as="geometry" />
        </mxCell>
        <mxCell id="7bcrf3msrehZK2Avg0mC-106" value="$$\text{Re}(\alpha_{00})$$" style="text;html=1;align=center;verticalAlign=middle;whiteSpace=wrap;rounded=0;" vertex="1" parent="1">
          <mxGeometry x="445" y="269" width="160" height="40" as="geometry" />
        </mxCell>
        <mxCell id="7bcrf3msrehZK2Avg0mC-107" value="" style="rounded=0;whiteSpace=wrap;html=1;" vertex="1" parent="1">
          <mxGeometry x="445" y="309" width="160" height="40" as="geometry" />
        </mxCell>
        <mxCell id="7bcrf3msrehZK2Avg0mC-108" value="$$\text{Im}(\alpha_{00})$$" style="text;html=1;align=center;verticalAlign=middle;whiteSpace=wrap;rounded=0;" vertex="1" parent="1">
          <mxGeometry x="445" y="309" width="160" height="40" as="geometry" />
        </mxCell>
        <mxCell id="7bcrf3msrehZK2Avg0mC-109" value="" style="rounded=0;whiteSpace=wrap;html=1;" vertex="1" parent="1">
          <mxGeometry x="445" y="349" width="160" height="40" as="geometry" />
        </mxCell>
        <mxCell id="7bcrf3msrehZK2Avg0mC-110" value="$$\text{Re}(\beta_{01})$$" style="text;html=1;align=center;verticalAlign=middle;whiteSpace=wrap;rounded=0;" vertex="1" parent="1">
          <mxGeometry x="445" y="349" width="160" height="40" as="geometry" />
        </mxCell>
        <mxCell id="7bcrf3msrehZK2Avg0mC-111" value="" style="rounded=0;whiteSpace=wrap;html=1;" vertex="1" parent="1">
          <mxGeometry x="445" y="389" width="160" height="40" as="geometry" />
        </mxCell>
        <mxCell id="7bcrf3msrehZK2Avg0mC-112" value="$$\text{Im}(\beta_{01})$$" style="text;html=1;align=center;verticalAlign=middle;whiteSpace=wrap;rounded=0;" vertex="1" parent="1">
          <mxGeometry x="445" y="389" width="160" height="40" as="geometry" />
        </mxCell>
        <mxCell id="7bcrf3msrehZK2Avg0mC-113" value="" style="rounded=0;whiteSpace=wrap;html=1;" vertex="1" parent="1">
          <mxGeometry x="445" y="429" width="160" height="40" as="geometry" />
        </mxCell>
        <mxCell id="7bcrf3msrehZK2Avg0mC-114" value="$$\text{Re}(\alpha_{10})$$" style="text;html=1;align=center;verticalAlign=middle;whiteSpace=wrap;rounded=0;" vertex="1" parent="1">
          <mxGeometry x="445" y="429" width="160" height="40" as="geometry" />
        </mxCell>
        <mxCell id="7bcrf3msrehZK2Avg0mC-115" value="" style="rounded=0;whiteSpace=wrap;html=1;" vertex="1" parent="1">
          <mxGeometry x="445" y="469" width="160" height="40" as="geometry" />
        </mxCell>
        <mxCell id="7bcrf3msrehZK2Avg0mC-116" value="$$\text{Im}(\alpha_{10})$$" style="text;html=1;align=center;verticalAlign=middle;whiteSpace=wrap;rounded=0;" vertex="1" parent="1">
          <mxGeometry x="445" y="469" width="160" height="40" as="geometry" />
        </mxCell>
        <mxCell id="7bcrf3msrehZK2Avg0mC-117" value="" style="rounded=0;whiteSpace=wrap;html=1;" vertex="1" parent="1">
          <mxGeometry x="445" y="509" width="160" height="40" as="geometry" />
        </mxCell>
        <mxCell id="7bcrf3msrehZK2Avg0mC-118" value="$$\text{Re}(\beta_{11})$$" style="text;html=1;align=center;verticalAlign=middle;whiteSpace=wrap;rounded=0;" vertex="1" parent="1">
          <mxGeometry x="445" y="509" width="160" height="40" as="geometry" />
        </mxCell>
        <mxCell id="7bcrf3msrehZK2Avg0mC-119" value="" style="rounded=0;whiteSpace=wrap;html=1;" vertex="1" parent="1">
          <mxGeometry x="445" y="549" width="160" height="40" as="geometry" />
        </mxCell>
        <mxCell id="7bcrf3msrehZK2Avg0mC-120" value="$$\text{Im}(\beta_{11})$$" style="text;html=1;align=center;verticalAlign=middle;whiteSpace=wrap;rounded=0;" vertex="1" parent="1">
          <mxGeometry x="445" y="549" width="160" height="40" as="geometry" />
        </mxCell>
        <mxCell id="7bcrf3msrehZK2Avg0mC-121" value="" style="rounded=0;whiteSpace=wrap;html=1;" vertex="1" parent="1">
          <mxGeometry x="805" y="269" width="160" height="40" as="geometry" />
        </mxCell>
        <mxCell id="7bcrf3msrehZK2Avg0mC-122" value="$$\text{Re}(\alpha_{00})$$" style="text;html=1;align=center;verticalAlign=middle;whiteSpace=wrap;rounded=0;" vertex="1" parent="1">
          <mxGeometry x="805" y="269" width="160" height="40" as="geometry" />
        </mxCell>
        <mxCell id="7bcrf3msrehZK2Avg0mC-123" value="" style="rounded=0;whiteSpace=wrap;html=1;" vertex="1" parent="1">
          <mxGeometry x="805" y="309" width="160" height="40" as="geometry" />
        </mxCell>
        <mxCell id="7bcrf3msrehZK2Avg0mC-124" value="$$\text{Im}(\alpha_{00})$$" style="text;html=1;align=center;verticalAlign=middle;whiteSpace=wrap;rounded=0;" vertex="1" parent="1">
          <mxGeometry x="805" y="309" width="160" height="40" as="geometry" />
        </mxCell>
        <mxCell id="7bcrf3msrehZK2Avg0mC-125" value="" style="rounded=0;whiteSpace=wrap;html=1;" vertex="1" parent="1">
          <mxGeometry x="805" y="349" width="160" height="40" as="geometry" />
        </mxCell>
        <mxCell id="7bcrf3msrehZK2Avg0mC-126" value="$$\text{Re}(\beta_{01})$$" style="text;html=1;align=center;verticalAlign=middle;whiteSpace=wrap;rounded=0;" vertex="1" parent="1">
          <mxGeometry x="805" y="349" width="160" height="40" as="geometry" />
        </mxCell>
        <mxCell id="7bcrf3msrehZK2Avg0mC-127" value="" style="rounded=0;whiteSpace=wrap;html=1;" vertex="1" parent="1">
          <mxGeometry x="805" y="389" width="160" height="40" as="geometry" />
        </mxCell>
        <mxCell id="7bcrf3msrehZK2Avg0mC-128" value="$$\text{Im}(\beta_{01})$$" style="text;html=1;align=center;verticalAlign=middle;whiteSpace=wrap;rounded=0;" vertex="1" parent="1">
          <mxGeometry x="805" y="389" width="160" height="40" as="geometry" />
        </mxCell>
        <mxCell id="7bcrf3msrehZK2Avg0mC-129" value="" style="rounded=0;whiteSpace=wrap;html=1;" vertex="1" parent="1">
          <mxGeometry x="805" y="429" width="160" height="40" as="geometry" />
        </mxCell>
        <mxCell id="7bcrf3msrehZK2Avg0mC-130" value="$$\text{Re}(\alpha_{10})$$" style="text;html=1;align=center;verticalAlign=middle;whiteSpace=wrap;rounded=0;" vertex="1" parent="1">
          <mxGeometry x="805" y="429" width="160" height="40" as="geometry" />
        </mxCell>
        <mxCell id="7bcrf3msrehZK2Avg0mC-131" value="" style="rounded=0;whiteSpace=wrap;html=1;" vertex="1" parent="1">
          <mxGeometry x="805" y="469" width="160" height="40" as="geometry" />
        </mxCell>
        <mxCell id="7bcrf3msrehZK2Avg0mC-132" value="$$\text{Im}(\alpha_{10})$$" style="text;html=1;align=center;verticalAlign=middle;whiteSpace=wrap;rounded=0;" vertex="1" parent="1">
          <mxGeometry x="805" y="469" width="160" height="40" as="geometry" />
        </mxCell>
        <mxCell id="7bcrf3msrehZK2Avg0mC-133" value="" style="rounded=0;whiteSpace=wrap;html=1;" vertex="1" parent="1">
          <mxGeometry x="805" y="509" width="160" height="40" as="geometry" />
        </mxCell>
        <mxCell id="7bcrf3msrehZK2Avg0mC-134" value="$$\text{Re}(\beta_{11})$$" style="text;html=1;align=center;verticalAlign=middle;whiteSpace=wrap;rounded=0;" vertex="1" parent="1">
          <mxGeometry x="805" y="509" width="160" height="40" as="geometry" />
        </mxCell>
        <mxCell id="7bcrf3msrehZK2Avg0mC-135" value="" style="rounded=0;whiteSpace=wrap;html=1;" vertex="1" parent="1">
          <mxGeometry x="805" y="549" width="160" height="40" as="geometry" />
        </mxCell>
        <mxCell id="7bcrf3msrehZK2Avg0mC-136" value="$$\text{Im}(\beta_{11})$$" style="text;html=1;align=center;verticalAlign=middle;whiteSpace=wrap;rounded=0;" vertex="1" parent="1">
          <mxGeometry x="805" y="549" width="160" height="40" as="geometry" />
        </mxCell>
        <mxCell id="7bcrf3msrehZK2Avg0mC-140" value="" style="rounded=0;whiteSpace=wrap;html=1;" vertex="1" parent="1">
          <mxGeometry x="665" y="309" width="80" height="80" as="geometry" />
        </mxCell>
        <mxCell id="7bcrf3msrehZK2Avg0mC-141" value="$$\text{Quantum}$$" style="text;html=1;align=center;verticalAlign=middle;whiteSpace=wrap;rounded=0;" vertex="1" parent="1">
          <mxGeometry x="665" y="319" width="80" height="30" as="geometry" />
        </mxCell>
        <mxCell id="7bcrf3msrehZK2Avg0mC-142" value="$$\text{Gate}$$" style="text;html=1;align=center;verticalAlign=middle;whiteSpace=wrap;rounded=0;" vertex="1" parent="1">
          <mxGeometry x="665" y="349" width="80" height="30" as="geometry" />
        </mxCell>
        <mxCell id="7bcrf3msrehZK2Avg0mC-146" value="" style="endArrow=none;html=1;rounded=0;exitX=1;exitY=0;exitDx=0;exitDy=0;entryX=0;entryY=1;entryDx=0;entryDy=0;" edge="1" parent="1" source="7bcrf3msrehZK2Avg0mC-110" target="7bcrf3msrehZK2Avg0mC-141">
          <mxGeometry width="50" height="50" relative="1" as="geometry">
            <mxPoint x="665" y="319" as="sourcePoint" />
            <mxPoint x="715" y="269" as="targetPoint" />
          </mxGeometry>
        </mxCell>
        <mxCell id="7bcrf3msrehZK2Avg0mC-147" value="" style="endArrow=none;html=1;rounded=0;exitX=1;exitY=0;exitDx=0;exitDy=0;entryX=0;entryY=1;entryDx=0;entryDy=0;" edge="1" parent="1">
          <mxGeometry width="50" height="50" relative="1" as="geometry">
            <mxPoint x="745" y="348.17" as="sourcePoint" />
            <mxPoint x="805" y="348.17" as="targetPoint" />
          </mxGeometry>
        </mxCell>
        <mxCell id="7bcrf3msrehZK2Avg0mC-148" value="" style="rounded=0;whiteSpace=wrap;html=1;" vertex="1" parent="1">
          <mxGeometry x="665" y="469" width="80" height="80" as="geometry" />
        </mxCell>
        <mxCell id="7bcrf3msrehZK2Avg0mC-149" value="$$\text{Quantum}$$" style="text;html=1;align=center;verticalAlign=middle;whiteSpace=wrap;rounded=0;" vertex="1" parent="1">
          <mxGeometry x="665" y="479" width="80" height="30" as="geometry" />
        </mxCell>
        <mxCell id="7bcrf3msrehZK2Avg0mC-150" value="$$\text{Gate}$$" style="text;html=1;align=center;verticalAlign=middle;whiteSpace=wrap;rounded=0;" vertex="1" parent="1">
          <mxGeometry x="665" y="509" width="80" height="30" as="geometry" />
        </mxCell>
        <mxCell id="7bcrf3msrehZK2Avg0mC-151" value="" style="endArrow=none;html=1;rounded=0;exitX=1;exitY=0;exitDx=0;exitDy=0;entryX=0;entryY=1;entryDx=0;entryDy=0;" edge="1" parent="1" target="7bcrf3msrehZK2Avg0mC-149">
          <mxGeometry width="50" height="50" relative="1" as="geometry">
            <mxPoint x="605" y="509" as="sourcePoint" />
            <mxPoint x="715" y="429" as="targetPoint" />
          </mxGeometry>
        </mxCell>
        <mxCell id="7bcrf3msrehZK2Avg0mC-152" value="" style="endArrow=none;html=1;rounded=0;exitX=1;exitY=0;exitDx=0;exitDy=0;entryX=0;entryY=1;entryDx=0;entryDy=0;" edge="1" parent="1">
          <mxGeometry width="50" height="50" relative="1" as="geometry">
            <mxPoint x="745" y="508.1700000000001" as="sourcePoint" />
            <mxPoint x="805" y="508.1700000000001" as="targetPoint" />
          </mxGeometry>
        </mxCell>
        <mxCell id="7bcrf3msrehZK2Avg0mC-153" value="&lt;font style=&quot;font-size: 18px;&quot;&gt;$$\cdots$$&lt;/font&gt;" style="text;html=1;align=center;verticalAlign=middle;whiteSpace=wrap;rounded=0;" vertex="1" parent="1">
          <mxGeometry x="985" y="414" width="30" height="30" as="geometry" />
        </mxCell>
        <mxCell id="7bcrf3msrehZK2Avg0mC-155" value="" style="endArrow=none;html=1;rounded=0;entryX=0;entryY=0.25;entryDx=0;entryDy=0;" edge="1" parent="1" target="7bcrf3msrehZK2Avg0mC-104">
          <mxGeometry width="50" height="50" relative="1" as="geometry">
            <mxPoint x="215" y="409" as="sourcePoint" />
            <mxPoint x="225" y="404" as="targetPoint" />
          </mxGeometry>
        </mxCell>
        <mxCell id="7bcrf3msrehZK2Avg0mC-156" value="" style="endArrow=none;html=1;rounded=0;entryX=0;entryY=0.25;entryDx=0;entryDy=0;" edge="1" parent="1">
          <mxGeometry width="50" height="50" relative="1" as="geometry">
            <mxPoint x="215" y="448.58000000000004" as="sourcePoint" />
            <mxPoint x="285" y="448.58000000000004" as="targetPoint" />
          </mxGeometry>
        </mxCell>
        <mxCell id="7bcrf3msrehZK2Avg0mC-157" value="$$\text{Unentangled Qubit 1}$$" style="text;html=1;align=center;verticalAlign=middle;whiteSpace=wrap;rounded=0;" vertex="1" parent="1">
          <mxGeometry x="155" y="379" width="130" height="30" as="geometry" />
        </mxCell>
        <mxCell id="7bcrf3msrehZK2Avg0mC-158" value="$$\text{Unentangled Qubit 2}$$" style="text;html=1;align=center;verticalAlign=middle;whiteSpace=wrap;rounded=0;" vertex="1" parent="1">
          <mxGeometry x="155" y="419" width="130" height="30" as="geometry" />
        </mxCell>
        <mxCell id="7bcrf3msrehZK2Avg0mC-159" value="$$\text{Quantum State Register}$$" style="text;html=1;align=center;verticalAlign=middle;whiteSpace=wrap;rounded=0;" vertex="1" parent="1">
          <mxGeometry x="805" y="239" width="160" height="20" as="geometry" />
        </mxCell>
      </root>
    </mxGraphModel>
  </diagram>
</mxfile>
